<svg width="1600" height="1000" viewBox="0 0 1600 1000" fill="none" xmlns="http://www.w3.org/2000/svg">
  <defs>
    <linearGradient id="sky" x1="190" y1="24" x2="1378" y2="962" gradientUnits="userSpaceOnUse">
      <stop stop-color="#D7F3EE"/>
      <stop offset="0.48" stop-color="#F2E7C9"/>
      <stop offset="1" stop-color="#9FC6B8"/>
    </linearGradient>
    <linearGradient id="glass" x1="0" y1="0" x2="1" y2="1">
      <stop stop-color="#DFF8F3" stop-opacity="0.9"/>
      <stop offset="1" stop-color="#87AFA7" stop-opacity="0.78"/>
    </linearGradient>
    <linearGradient id="wall" x1="690" y1="333" x2="1280" y2="902" gradientUnits="userSpaceOnUse">
      <stop stop-color="#FFFDF6"/>
      <stop offset="1" stop-color="#DCCFB3"/>
    </linearGradient>
    <filter id="shadow" x="-20%" y="-20%" width="140%" height="140%">
      <feDropShadow dx="0" dy="30" stdDeviation="28" flood-color="#062F2D" flood-opacity="0.22"/>
    </filter>
  </defs>
  <rect width="1600" height="1000" fill="url(#sky)"/>
  <circle cx="1230" cy="170" r="92" fill="#FFF7D7" fill-opacity="0.92"/>
  <path d="M0 691C236 599 408 635 614 697C844 767 1082 755 1600 582V1000H0V691Z" fill="#6D9687"/>
  <path d="M0 771C298 664 594 731 827 794C1053 855 1285 830 1600 718V1000H0V771Z" fill="#2D665C"/>
  <g opacity="0.58">
    <path d="M68 608L204 430L347 608H68Z" fill="#8BA99E"/>
    <path d="M1134 571L1292 345L1486 571H1134Z" fill="#89A79B"/>
  </g>
  <g filter="url(#shadow)">
    <rect x="398" y="299" width="827" height="497" rx="34" fill="url(#wall)"/>
    <rect x="458" y="355" width="304" height="386" rx="20" fill="#F4E8CD"/>
    <rect x="793" y="355" width="372" height="386" rx="20" fill="#E7DDC6"/>
    <rect x="504" y="397" width="210" height="282" rx="14" fill="url(#glass)"/>
    <rect x="839" y="397" width="280" height="162" rx="14" fill="url(#glass)"/>
    <rect x="839" y="584" width="280" height="95" rx="14" fill="#143F3B"/>
    <rect x="734" y="255" width="130" height="541" rx="20" fill="#0D3A37"/>
    <rect x="778" y="419" width="42" height="322" rx="10" fill="#F2C96D"/>
    <rect x="366" y="752" width="890" height="70" rx="30" fill="#EDE1C9"/>
  </g>
  <g fill="#173F3B">
    <path d="M151 680C159 616 197 566 249 552C260 606 239 670 185 715C168 712 156 701 151 680Z"/>
    <path d="M228 711C246 642 288 608 345 604C343 665 310 715 250 746C238 738 231 726 228 711Z"/>
    <path d="M1284 694C1290 620 1337 565 1401 554C1414 622 1387 690 1325 735C1305 730 1291 716 1284 694Z"/>
  </g>
  <rect x="130" y="835" width="1340" height="64" rx="32" fill="#062F2D" fill-opacity="0.2"/>
</svg>
